<svg width="44" height="43" viewBox="0 0 44 43" fill="none" xmlns="http://www.w3.org/2000/svg">
<g clip-path="url(#clip0)">
<path d="M28.0691 15.5789C27.5 15.5789 27.0387 16.0298 27.0387 16.586V35.6187C27.0387 36.1746 27.5 36.6258 28.0691 36.6258C28.6383 36.6258 29.0996 36.1746 29.0996 35.6187V16.586C29.0996 16.0298 28.6383 15.5789 28.0691 15.5789Z" fill="#363F5F"/>
<path d="M15.9099 15.5789C15.3408 15.5789 14.8795 16.0298 14.8795 16.586V35.6187C14.8795 36.1746 15.3408 36.6258 15.9099 36.6258C16.4791 36.6258 16.9404 36.1746 16.9404 35.6187V16.586C16.9404 16.0298 16.4791 15.5789 15.9099 15.5789Z" fill="#363F5F"/>
<path d="M7.04814 12.8013V37.6122C7.04814 39.0787 7.59838 40.4559 8.55959 41.444C9.51637 42.4349 10.8479 42.9975 12.2414 42.9998H31.7377C33.1316 42.9975 34.4631 42.4349 35.4195 41.444C36.3807 40.4559 36.9309 39.0787 36.9309 37.6122V12.8013C38.8417 12.3057 40.0798 10.5017 39.8242 8.5856C39.5682 6.6699 37.8982 5.23686 35.921 5.23647H30.6453V3.97769C30.6513 2.91913 30.223 1.90267 29.4562 1.15488C28.6894 0.407479 27.6477 -0.00870489 26.5645 -5.0791e-05H17.4145C16.3314 -0.00870489 15.2897 0.407479 14.5229 1.15488C13.7561 1.90267 13.3278 2.91913 13.3338 3.97769V5.23647H8.05806C6.0809 5.23686 4.41086 6.6699 4.15486 8.5856C3.89926 10.5017 5.1374 12.3057 7.04814 12.8013ZM31.7377 40.9858H12.2414C10.4796 40.9858 9.10903 39.5067 9.10903 37.6122V12.8898H34.8701V37.6122C34.8701 39.5067 33.4995 40.9858 31.7377 40.9858ZM15.3947 3.97769C15.3879 3.45333 15.5988 2.94864 15.9796 2.57848C16.36 2.20832 16.8776 2.00495 17.4145 2.01399H26.5645C27.1015 2.00495 27.6191 2.20832 27.9995 2.57848C28.3803 2.94824 28.5912 3.45333 28.5844 3.97769V5.23647H15.3947V3.97769ZM8.05806 7.25051H35.921C36.9454 7.25051 37.7758 8.06203 37.7758 9.06315C37.7758 10.0643 36.9454 10.8758 35.921 10.8758H8.05806C7.03365 10.8758 6.20326 10.0643 6.20326 9.06315C6.20326 8.06203 7.03365 7.25051 8.05806 7.25051Z" fill="#363F5F"/>
<path d="M21.9895 15.5789C21.4204 15.5789 20.9591 16.0298 20.9591 16.586V35.6187C20.9591 36.1746 21.4204 36.6258 21.9895 36.6258C22.5587 36.6258 23.02 36.1746 23.02 35.6187V16.586C23.02 16.0298 22.5587 15.5789 21.9895 15.5789Z" fill="#363F5F"/>
</g>
<defs>
<clipPath id="clip0">
<rect width="44" height="43" fill="white"/>
</clipPath>
</defs>
</svg>
