<svg width="37" height="43" viewBox="0 0 37 43" fill="none" xmlns="http://www.w3.org/2000/svg">
<g clip-path="url(#clip0)">
<path d="M34.1495 27.0123C33.6406 27.0123 33.2281 27.4917 33.2281 28.0833V37.5919C33.2263 39.3656 31.9898 40.803 30.4636 40.8046H4.60746C3.08124 40.803 1.84478 39.3656 1.84298 37.5919V9.68471C1.84478 7.91141 3.08124 6.47403 4.60746 6.47194H12.7893C13.2983 6.47194 13.7108 5.99253 13.7108 5.40102C13.7108 4.80992 13.2983 4.33009 12.7893 4.33009H4.60746C2.064 4.33344 0.00287966 6.72879 0 9.68471V37.5923C0.00287966 40.5482 2.064 42.9436 4.60746 42.9469H30.4636C33.007 42.9436 35.0682 40.5482 35.071 37.5923V28.0833C35.071 27.4917 34.6585 27.0123 34.1495 27.0123Z" fill="#363F5F"/>
<path d="M32.7364 1.41155C31.117 -0.470516 28.4915 -0.470516 26.872 1.41155L10.432 20.5175C10.3194 20.6484 10.238 20.8107 10.1955 20.9889L8.03363 30.0596C7.94472 30.4315 8.03507 30.8297 8.26976 31.1029C8.50481 31.3756 8.84749 31.4806 9.16749 31.3777L16.9725 28.8648C17.1258 28.8155 17.2655 28.7209 17.3781 28.59L33.8178 9.48363C35.4347 7.60031 35.4347 4.55153 33.8178 2.66821L32.7364 1.41155ZM12.4399 21.2136L25.8947 5.57643L30.234 10.6194L16.7788 26.2565L12.4399 21.2136ZM11.5731 23.2349L15.0398 27.2643L10.2445 28.8083L11.5731 23.2349ZM32.5147 7.96928L31.5374 9.10504L27.1978 4.06166L28.1754 2.9259C29.075 1.88049 30.5335 1.88049 31.433 2.9259L32.5147 4.18256C33.4128 5.22922 33.4128 6.92304 32.5147 7.96928Z" fill="#363F5F"/>
</g>
<defs>
<clipPath id="clip0">
<rect width="37" height="43" fill="white"/>
</clipPath>
</defs>
</svg>
