<svg width="49" height="48" viewBox="0 0 49 48" fill="none" xmlns="http://www.w3.org/2000/svg">
<path d="M24.1508 23.1218C27.3935 23.1218 30.2011 21.9825 32.4957 19.7347C34.7896 17.4873 35.953 14.7374 35.953 11.5605C35.953 8.38475 34.79 5.63451 32.4953 3.38635C30.2007 1.13928 27.3932 0 24.1508 0C20.9078 0 18.1006 1.13928 15.8063 3.38671C13.5121 5.63414 12.3487 8.38438 12.3487 11.5605C12.3487 14.7374 13.5121 17.4876 15.8063 19.7351C18.1013 21.9821 20.9089 23.1218 24.1508 23.1218ZM17.837 5.3756C19.5975 3.65112 21.6626 2.81286 24.1508 2.81286C26.6387 2.81286 28.7042 3.65112 30.465 5.3756C32.2254 7.10045 33.0815 9.12376 33.0815 11.5605C33.0815 13.998 32.2254 16.021 30.465 17.7458C28.7042 19.4707 26.6387 20.3089 24.1508 20.3089C21.6633 20.3089 19.5982 19.4703 17.837 17.7458C16.0763 16.0213 15.2202 13.998 15.2202 11.5605C15.2202 9.12376 16.0763 7.10045 17.837 5.3756Z" fill="white"/>
<path d="M44.8014 36.9096C44.7352 35.9743 44.6014 34.954 44.4044 33.8766C44.2055 32.7912 43.9494 31.7651 43.6429 30.8272C43.3259 29.8578 42.8956 28.9006 42.3628 27.9832C41.8107 27.0311 41.1617 26.202 40.4334 25.5197C39.6719 24.806 38.7396 24.2321 37.6614 23.8135C36.587 23.3972 35.3963 23.1862 34.1227 23.1862C33.6225 23.1862 33.1387 23.3873 32.2045 23.9831C31.6295 24.3504 30.957 24.7752 30.2063 25.2451C29.5644 25.6457 28.6949 26.0211 27.6208 26.3609C26.5729 26.693 25.509 26.8615 24.4585 26.8615C23.4088 26.8615 22.3448 26.693 21.2962 26.3609C20.2233 26.0214 19.3533 25.6461 18.7126 25.2454C17.969 24.78 17.2961 24.3552 16.7125 23.9827C15.7791 23.3869 15.2953 23.1859 14.7951 23.1859C13.5211 23.1859 12.3307 23.3972 11.2567 23.8139C10.1793 24.2317 9.24657 24.8056 8.48431 25.5201C7.75607 26.2027 7.10708 27.0314 6.55529 27.9832C6.02332 28.9006 5.59265 29.8575 5.27563 30.8276C4.96946 31.7654 4.71338 32.7912 4.5145 33.8766C4.31711 34.9526 4.18365 35.9732 4.11748 36.9107C4.05243 37.8273 4.01953 38.7813 4.01953 39.7451C4.01953 42.2508 4.83263 44.2792 6.43604 45.7752C8.01962 47.2514 10.1146 47.9999 12.6631 47.9999H36.2569C38.8046 47.9999 40.8996 47.2514 42.4836 45.7752C44.0874 44.2803 44.9005 42.2511 44.9005 39.7448C44.9001 38.7776 44.8668 37.8236 44.8014 36.9096ZM40.5037 43.7372C39.4574 44.7128 38.0682 45.187 36.2565 45.187H12.6631C10.8511 45.187 9.4619 44.7128 8.41589 43.7376C7.3897 42.7807 6.891 41.4744 6.891 39.7451C6.891 38.8457 6.92128 37.9577 6.98184 37.1051C7.04091 36.2687 7.16166 35.3499 7.34073 34.3736C7.51756 33.4093 7.74261 32.5044 8.01028 31.6852C8.26711 30.8997 8.61739 30.1219 9.0518 29.3726C9.46638 28.6585 9.94341 28.0458 10.4698 27.5522C10.9621 27.0904 11.5827 26.7125 12.3139 26.429C12.9902 26.1668 13.7502 26.0232 14.5753 26.0016C14.6758 26.054 14.8549 26.154 15.145 26.3393C15.7353 26.7161 16.4157 27.1461 17.1679 27.6166C18.0157 28.1462 19.1081 28.6244 20.4132 29.0372C21.7474 29.4598 23.1082 29.6744 24.4589 29.6744C25.8096 29.6744 27.1707 29.4598 28.5042 29.0375C29.8104 28.6241 30.9024 28.1462 31.7514 27.6159C32.5211 27.134 33.1824 26.7165 33.7727 26.3393C34.0628 26.1544 34.2419 26.054 34.3425 26.0016C35.1679 26.0232 35.9279 26.1668 36.6046 26.429C37.3354 26.7125 37.956 27.0908 38.4484 27.5522C38.9747 28.0455 39.4517 28.6581 39.8663 29.373C40.3011 30.1219 40.6518 30.9001 40.9082 31.6849C41.1763 32.5052 41.4017 33.4097 41.5781 34.3732C41.7568 35.3514 41.878 36.2705 41.937 37.1055V37.1062C41.998 37.9555 42.0286 38.8432 42.029 39.7451C42.0286 41.4748 41.5299 42.7807 40.5037 43.7372Z" fill="white"/>
</svg>
